<svg xmlns="http://www.w3.org/2000/svg" width="302" height="102" viewBox="0 0 302 102">
    <g fill="none" fill-rule="evenodd">
        <rect width="302" height="101.794" fill="#000" rx="12.902"/>
        <path fill="#FFF" d="M116.96 74.426h-5.14l-2.816-8.796h-9.788l-2.683 8.796h-5.005l9.698-29.946h5.99l9.744 29.946zm-8.805-12.487h-8.088l2.501-7.82c.656-2.486 1.134-4.367 1.43-5.64h.091c.745 2.961 1.25 4.842 1.52 5.64l2.546 7.82zm33.744 1.425c0 3.672-.998 6.575-2.995 8.706-1.788 1.896-4.009 2.844-6.66 2.844-2.86 0-4.916-1.022-6.168-3.065h-.09v11.375h-4.826V59.94c0-2.309-.062-4.678-.18-7.108h4.245l.27 3.422h.09c1.61-2.578 4.052-3.865 7.33-3.865 2.562 0 4.701 1.005 6.413 3.02 1.716 2.015 2.571 4.666 2.571 7.954zm-4.916.175c0-2.101-.476-3.834-1.431-5.198-1.044-1.422-2.445-2.133-4.201-2.133-1.191 0-2.273.396-3.24 1.177-.969.787-1.602 1.816-1.899 3.09-.15.593-.224 1.08-.224 1.462v3.6c0 1.57.484 2.896 1.453 3.979.97 1.082 2.228 1.622 3.776 1.622 1.818 0 3.233-.698 4.244-2.088 1.015-1.393 1.522-3.23 1.522-5.51zm29.9-.175c0 3.672-.998 6.575-2.997 8.706-1.786 1.896-4.006 2.844-6.657 2.844-2.861 0-4.917-1.022-6.166-3.065h-.091v11.375h-4.826V59.94c0-2.309-.061-4.678-.179-7.108h4.244l.27 3.422h.09c1.608-2.578 4.05-3.865 7.33-3.865 2.56 0 4.7 1.005 6.415 3.02 1.71 2.015 2.567 4.666 2.567 7.954zm-4.916.175c0-2.101-.478-3.834-1.433-5.198-1.044-1.422-2.44-2.133-4.2-2.133-1.192 0-2.272.396-3.24 1.177-.97.787-1.601 1.816-1.898 3.09-.147.593-.224 1.08-.224 1.462v3.6c0 1.57.484 2.896 1.449 3.979.969 1.08 2.227 1.622 3.78 1.622 1.818 0 3.233-.698 4.244-2.088 1.015-1.393 1.522-3.23 1.522-5.51zm32.85 2.489c0 2.547-.89 4.62-2.676 6.22-1.962 1.748-4.694 2.62-8.205 2.62-3.242 0-5.84-.62-7.808-1.865l1.118-3.998c2.12 1.273 4.444 1.912 6.977 1.912 1.818 0 3.233-.409 4.249-1.224 1.012-.814 1.517-1.908 1.517-3.271 0-1.215-.417-2.24-1.252-3.07-.83-.83-2.219-1.602-4.156-2.315-5.275-1.955-7.91-4.82-7.91-8.587 0-2.461.924-4.48 2.773-6.05 1.843-1.573 4.301-2.359 7.375-2.359 2.742 0 5.019.475 6.837 1.423l-1.207 3.91c-1.698-.918-3.617-1.377-5.765-1.377-1.698 0-3.025.416-3.975 1.245-.804.74-1.207 1.642-1.207 2.711 0 1.184.46 2.162 1.383 2.932.804.711 2.264 1.48 4.383 2.31 2.592 1.038 4.495 2.251 5.72 3.642 1.22 1.386 1.829 3.12 1.829 5.19zm15.957-9.595h-5.32v10.484c0 2.666.937 3.998 2.816 3.998.862 0 1.578-.074 2.144-.223l.133 3.644c-.95.353-2.202.53-3.753.53-1.906 0-3.395-.578-4.47-1.732-1.071-1.157-1.61-3.096-1.61-5.821V56.429h-3.17v-3.6h3.17v-3.954l4.74-1.422v5.375h5.32v3.605zm24.001 7.018c0 3.32-.955 6.044-2.861 8.175-1.999 2.194-4.652 3.288-7.959 3.288-3.187 0-5.725-1.051-7.617-3.153-1.893-2.101-2.839-4.754-2.839-7.952 0-3.346.973-6.087 2.927-8.217 1.949-2.134 4.58-3.2 7.887-3.2 3.187 0 5.752 1.05 7.687 3.155 1.852 2.04 2.775 4.675 2.775 7.904zm-5.007.156c0-1.992-.428-3.7-1.295-5.124-1.012-1.724-2.458-2.583-4.332-2.583-1.94 0-3.414.862-4.426 2.583-.867 1.427-1.295 3.162-1.295 5.214 0 1.991.428 3.699 1.295 5.121 1.044 1.724 2.501 2.583 4.383 2.583 1.842 0 3.289-.877 4.332-2.628.89-1.451 1.338-3.177 1.338-5.166zm20.695-6.555a8.429 8.429 0 0 0-1.522-.133c-1.697 0-3.01.637-3.934 1.913-.804 1.125-1.206 2.547-1.206 4.264v11.33h-4.824l.045-14.793a116.7 116.7 0 0 0-.181-6.798h4.203l.177 4.131h.134c.509-1.42 1.313-2.563 2.413-3.42 1.075-.772 2.236-1.156 3.488-1.156.446 0 .849.031 1.207.087v4.575zm21.584 5.556c0 .86-.057 1.584-.177 2.176h-14.478c.056 2.133.756 3.764 2.1 4.89 1.22 1.005 2.798 1.509 4.736 1.509 2.144 0 4.1-.34 5.858-1.022l.756 3.33c-2.055.892-4.482 1.335-7.282 1.335-3.368 0-6.012-.986-7.936-2.954-1.92-1.97-2.882-4.613-2.882-7.93 0-3.256.894-5.968 2.685-8.13 1.874-2.309 4.407-3.463 7.594-3.463 3.131 0 5.501 1.154 7.11 3.463 1.275 1.834 1.916 4.102 1.916 6.796zm-4.602-1.245c.031-1.422-.283-2.65-.938-3.688-.835-1.334-2.118-2-3.846-2-1.577 0-2.86.65-3.841 1.955-.804 1.038-1.281 2.282-1.428 3.731h10.053v.002zM106.559 26.058c0 2.648-.8 4.642-2.395 5.981-1.478 1.235-3.579 1.854-6.3 1.854-1.349 0-2.504-.058-3.47-.175V19.247c1.26-.203 2.619-.306 4.086-.306 2.592 0 4.545.56 5.863 1.68 1.476 1.267 2.216 3.079 2.216 5.437zm-2.501.065c0-1.717-.458-3.033-1.372-3.951-.915-.916-2.25-1.375-4.01-1.375-.746 0-1.382.05-1.91.153v11.001c.292.045.826.065 1.603.065 1.815 0 3.217-.501 4.204-1.505.987-1.003 1.485-2.466 1.485-4.388zm15.764 2.248c0 1.632-.469 2.968-1.406 4.017-.982 1.078-2.284 1.615-3.91 1.615-1.566 0-2.813-.515-3.744-1.55-.928-1.033-1.392-2.336-1.392-3.906 0-1.643.478-2.99 1.438-4.037.96-1.046 2.25-1.57 3.875-1.57 1.567 0 2.825.515 3.778 1.547.906 1.004 1.36 2.3 1.36 3.884zm-2.46.077c0-.98-.214-1.818-.637-2.518-.498-.846-1.207-1.27-2.128-1.27-.953 0-1.677.424-2.175 1.27-.426.7-.636 1.552-.636 2.56 0 .98.212 1.819.636 2.518.514.846 1.229 1.27 2.153 1.27.905 0 1.616-.43 2.127-1.292.44-.713.66-1.56.66-2.538zm20.243-5.293l-3.339 10.608h-2.173l-1.383-4.607a34.304 34.304 0 0 1-.858-3.427h-.043a24.967 24.967 0 0 1-.858 3.427l-1.469 4.607h-2.198l-3.14-10.608h2.438l1.207 5.043c.292 1.193.532 2.329.724 3.404h.043c.177-.886.469-2.016.88-3.382l1.515-5.062h1.933l1.451 4.954c.351 1.209.636 2.372.856 3.493h.066c.16-1.092.403-2.255.724-3.493l1.295-4.954h2.33v-.003zm12.299 10.608h-2.373v-6.076c0-1.872-.715-2.808-2.15-2.808-.704 0-1.272.256-1.714.772a2.729 2.729 0 0 0-.659 1.818v6.291h-2.372v-7.574c0-.931-.03-1.942-.086-3.035h2.085l.11 1.658h.067c.276-.515.688-.94 1.229-1.28a4.028 4.028 0 0 1 2.15-.596c.996 0 1.825.319 2.483.96.82.786 1.23 1.958 1.23 3.515v6.355zm4.172-15.475h2.37v15.475h-2.37V18.288zm16.336 10.083c0 1.632-.468 2.968-1.405 4.017-.983 1.078-2.287 1.615-3.91 1.615-1.568 0-2.816-.515-3.744-1.55-.928-1.033-1.392-2.336-1.392-3.906 0-1.643.478-2.99 1.437-4.037.96-1.046 2.25-1.57 3.874-1.57 1.568 0 2.825.515 3.78 1.547.905 1.004 1.36 2.3 1.36 3.884zm-2.462.077c0-.98-.213-1.818-.637-2.518-.495-.846-1.206-1.27-2.125-1.27-.955 0-1.68.424-2.176 1.27-.425.7-.636 1.552-.636 2.56 0 .98.213 1.819.636 2.518.514.846 1.23 1.27 2.153 1.27.906 0 1.614-.43 2.126-1.292.441-.713.659-1.56.659-2.538zm13.944 5.315h-2.13l-.177-1.222h-.066c-.728.974-1.768 1.462-3.117 1.462-1.007 0-1.822-.321-2.435-.96-.557-.581-.836-1.303-.836-2.16 0-1.297.544-2.285 1.637-2.969 1.091-.684 2.626-1.019 4.602-1.003v-.198c0-1.398-.738-2.095-2.216-2.095-1.053 0-1.98.263-2.782.785l-.482-1.548c.991-.61 2.216-.916 3.66-.916 2.789 0 4.188 1.463 4.188 4.388v3.906c0 1.06.052 1.904.154 2.53zm-2.463-3.646v-1.636c-2.617-.045-3.925.669-3.925 2.138 0 .554.15.968.455 1.244.305.277.695.414 1.159.414.52 0 1.007-.164 1.45-.49.447-.329.72-.745.822-1.256.025-.114.039-.254.039-.414zm15.943 3.646h-2.105l-.111-1.704h-.066c-.672 1.296-1.818 1.944-3.427 1.944-1.286 0-2.357-.501-3.205-1.505-.85-1.004-1.273-2.306-1.273-3.906 0-1.717.46-3.108 1.383-4.17.895-.99 1.99-1.485 3.294-1.485 1.433 0 2.436.48 3.006 1.44h.046v-6.089h2.374v12.617c0 1.033.027 1.985.084 2.858zm-2.458-4.474v-1.768a3.45 3.45 0 0 0-.066-.743 2.683 2.683 0 0 0-.858-1.429 2.34 2.34 0 0 0-1.587-.578c-.885 0-1.578.349-2.087 1.048-.505.7-.76 1.594-.76 2.685 0 1.049.242 1.9.728 2.554.514.697 1.207 1.046 2.074 1.046.779 0 1.401-.29 1.874-.873.457-.538.682-1.186.682-1.942zm22.747-.918c0 1.632-.468 2.968-1.406 4.017-.982 1.078-2.281 1.615-3.909 1.615-1.564 0-2.811-.515-3.744-1.55-.928-1.033-1.392-2.336-1.392-3.906 0-1.643.477-2.99 1.437-4.037.96-1.046 2.25-1.57 3.878-1.57 1.564 0 2.825.515 3.776 1.547.905 1.004 1.36 2.3 1.36 3.884zm-2.458.077c0-.98-.213-1.818-.636-2.518-.5-.846-1.207-1.27-2.13-1.27-.951 0-1.676.424-2.176 1.27-.425.7-.636 1.552-.636 2.56 0 .98.213 1.819.636 2.518.514.846 1.23 1.27 2.153 1.27.905 0 1.618-.43 2.13-1.292.437-.713.659-1.56.659-2.538zm15.214 5.315h-2.37v-6.076c0-1.872-.715-2.808-2.153-2.808-.704 0-1.272.256-1.711.772a2.717 2.717 0 0 0-.659 1.818v6.291h-2.375v-7.574c0-.931-.027-1.942-.083-3.035h2.082l.111 1.658h.066c.278-.515.69-.94 1.229-1.28a4.035 4.035 0 0 1 2.153-.596c.994 0 1.822.319 2.48.96.822.786 1.23 1.958 1.23 3.515v6.355zm15.966-8.841h-2.613v5.153c0 1.31.464 1.964 1.383 1.964.426 0 .78-.036 1.058-.11l.06 1.789c-.468.175-1.084.263-1.842.263-.937 0-1.666-.284-2.193-.85-.53-.568-.793-1.522-.793-2.86v-5.35h-1.56v-1.766h1.56v-1.944l2.325-.697v2.639h2.612v1.769h.003zm12.558 8.84h-2.374v-6.03c0-1.901-.715-2.853-2.148-2.853-1.1 0-1.852.551-2.264 1.654-.07.232-.111.515-.111.848v6.38h-2.37V18.287h2.37v6.393h.045c.747-1.163 1.818-1.744 3.206-1.744.982 0 1.795.32 2.44.96.803.8 1.206 1.988 1.206 3.558v6.308zm12.955-5.805c0 .423-.031.779-.088 1.069h-7.115c.032 1.049.372 1.847 1.03 2.4.602.496 1.379.743 2.33.743 1.052 0 2.012-.166 2.877-.501l.371 1.638c-1.012.436-2.203.655-3.581.655-1.653 0-2.954-.484-3.896-1.452-.946-.967-1.415-2.266-1.415-3.895 0-1.6.437-2.932 1.318-3.994.919-1.134 2.162-1.701 3.73-1.701 1.535 0 2.7.567 3.489 1.701.636.9.95 2.014.95 3.337zm-2.263-.61c.018-.7-.138-1.303-.46-1.811-.412-.655-1.039-.983-1.888-.983-.774 0-1.405.32-1.888.96-.393.511-.627 1.121-.704 1.834h4.94zM63.082 48.986c.076 8.762 7.715 11.658 7.808 11.69-.045.204-1.196 4.18-4.061 8.217-2.393 3.554-4.9 7.029-8.881 7.092-3.867.089-5.169-2.26-9.605-2.26-4.477 0-5.862 2.197-9.572 2.349-3.792.138-6.69-3.795-9.169-7.317-4.956-7.192-8.814-20.267-3.641-29.165 2.507-4.364 7.077-7.174 11.963-7.249 3.796-.077 7.32 2.547 9.652 2.547 2.288 0 6.644-3.139 11.134-2.669 1.88.054 7.226.737 10.676 5.734-.279.165-6.37 3.721-6.304 11.031zM55.777 27.49c-2.082 2.44-5.413 4.307-8.657 4.066-.425-3.293 1.219-6.795 3.059-8.931 2.08-2.425 5.691-4.282 8.58-4.41.378 3.423-.987 6.796-2.982 9.275z"/>
    </g>
</svg>
