<svg xmlns="http://www.w3.org/2000/svg" width="302" height="102" viewBox="0 0 302 102">
    <defs>
        <linearGradient id="a" x1="50%" x2="50%" y1="0%" y2="100%">
            <stop offset="0%" stop-color="#1E79AF"/>
            <stop offset="100%" stop-color="#63FFD3"/>
        </linearGradient>
        <linearGradient id="b" x1="84.718%" x2="5.244%" y1="14.446%" y2="96.562%">
            <stop offset="0%" stop-color="#DC4057"/>
            <stop offset="100%" stop-color="#9E36BB"/>
        </linearGradient>
        <linearGradient id="c" x1="50%" x2="50%" y1="0%" y2="97.826%">
            <stop offset="0%" stop-color="#FF9676"/>
            <stop offset="100%" stop-color="#FFD074"/>
        </linearGradient>
        <linearGradient id="d" x1="17.444%" y1="0%" y2="100%">
            <stop offset="0%" stop-color="#51C6AD"/>
            <stop offset="100%" stop-color="#D5FFA1"/>
        </linearGradient>
    </defs>
    <g fill="none" fill-rule="evenodd">
        <rect width="302" height="101.794" fill="#000" rx="12.902"/>
        <path fill="url(#a)" d="M1.89-.306C1.038-.039.487.824.487 2.129l.005 41.087c0 1.291.534 2.141 1.361 2.425l22.949-22.992L1.889-.306" transform="translate(22.568 41.836)"/>
        <path fill="url(#b)" d="M1.854 45.64c.595.203 1.341.108 2.154-.338l28.005-15.43-7.21-7.223L1.854 45.641" transform="translate(22.568 41.836)"/>
        <path fill="url(#c)" d="M32.017 29.873l9.549-5.26c1.936-1.07 1.936-2.812 0-3.88l-9.585-5.28-7.178 7.192 7.214 7.228" transform="translate(22.568 41.836)"/>
        <path fill="url(#d)" d="M31.98 15.453L4.008.045C3.215-.39 2.483-.491 1.891-.306l22.912 22.951 7.177-7.192" transform="translate(22.568 41.836)"/>
        <path fill="#FFF" d="M104.67 74.536l-5.93 1.36c-2.404.38-4.562.714-6.847.714-11.44 0-15.798-8.436-15.798-15.038 0-8.063 6.176-15.539 16.753-15.539 2.237 0 4.39.33 6.351.866 3.109.875 4.562 1.953 5.47 2.585l-3.444 3.278-1.453.326 1.036-1.654c-1.403-1.372-3.982-3.906-8.875-3.906-6.543 0-11.48 4.983-11.48 12.258 0 7.813 5.637 15.163 14.676 15.163 2.656 0 4.023-.535 5.264-1.034v-6.698l-6.262.337 3.32-1.786h8.788l-1.075 1.036c-.29.247-.329.331-.41.662-.043.379-.084 1.582-.084 2.004v5.066zm13.601 1.538c-7.033 0-10.79-5.486-10.79-10.453 0-5.804 4.732-10.77 11.457-10.77 6.5 0 10.57 5.101 10.57 10.457 0 5.232-4.021 10.766-11.237 10.766zm5.534-3.585c1.062-1.419 1.326-3.19 1.326-4.915 0-3.903-1.861-11.348-7.342-11.348a6.137 6.137 0 0 0-3.98 1.504c-1.73 1.551-2.038 3.5-2.038 5.413 0 4.378 2.17 11.6 7.523 11.6 1.726 0 3.49-.839 4.51-2.254zm18.01 3.585c-7.032 0-10.795-5.486-10.795-10.453 0-5.804 4.73-10.77 11.458-10.77 6.504 0 10.577 5.101 10.577 10.457 0 5.232-4.026 10.766-11.24 10.766zm5.532-3.585c1.07-1.419 1.33-3.19 1.33-4.915 0-3.903-1.857-11.348-7.343-11.348-1.46 0-2.93.572-3.988 1.504-1.728 1.551-2.036 3.5-2.036 5.413 0 4.378 2.16 11.6 7.522 11.6 1.73 0 3.496-.839 4.515-2.254zm21.896-15.463c1.016.837 3.136 2.613 3.136 5.98 0 3.282-1.848 4.83-3.71 6.294-.572.576-1.24 1.201-1.24 2.168 0 .981.668 1.513 1.149 1.91l1.598 1.236c1.943 1.643 3.714 3.15 3.714 6.21 0 4.168-4.027 8.372-11.637 8.372-6.411 0-9.51-3.059-9.51-6.338 0-1.596.793-3.856 3.41-5.405 2.742-1.68 6.458-1.904 8.448-2.036-.622-.803-1.331-1.645-1.331-3.019 0-.751.225-1.2.443-1.727-.484.046-.971.093-1.414.093-4.692 0-7.344-3.507-7.344-6.962 0-2.038.928-4.3 2.834-5.94 2.522-2.08 5.53-2.438 7.92-2.438h9.116l-2.835 1.602h-2.747zm-3.135 19.676c-.363-.047-.58-.047-1.018-.047-.402 0-2.791.086-4.643.709-.979.358-3.81 1.418-3.81 4.566 0 3.142 3.057 5.407 7.784 5.407 4.248 0 6.502-2.04 6.502-4.785 0-2.26-1.459-3.453-4.815-5.85zm1.272-8.421c1.022-1.024 1.112-2.437 1.112-3.24 0-3.187-1.897-8.151-5.575-8.151-1.147 0-2.39.576-3.095 1.468-.748.923-.973 2.121-.973 3.273 0 2.968 1.728 7.89 5.529 7.89 1.109 0 2.302-.54 3.002-1.24zm13.954 3.902c0 1.721.306 1.99 1.76 2.125.758.089 1.513.128 2.26.218l-1.636.975h-7.796c1.023-1.329 1.198-1.461 1.198-2.347v-.989l-.017-26.35h-3.442l3.314-1.6h6.326c-1.37.795-1.781 1.28-1.957 2.831l-.01 25.137zm21.745.342l-2.116 2c-.49.27-.976.582-1.46.804-1.47.669-2.965.837-4.293.837-1.413 0-3.628-.092-5.889-1.73-3.14-2.215-4.512-6.024-4.512-9.343 0-6.872 5.583-10.242 10.138-10.242 1.591 0 3.226.4 4.555 1.242 2.21 1.464 2.782 3.367 3.1 4.386l-10.4 4.21-3.406.265c1.102 5.634 4.907 8.911 9.11 8.911 2.101 0 3.66-.687 5.09-1.395 0 0 .287-.15.083.055zm-6.275-11.207c.845-.307 1.284-.572 1.284-1.19 0-1.77-2-3.815-4.385-3.815-1.768 0-5.086 1.38-5.086 6.168 0 .747.09 1.543.134 2.339l8.053-3.502zm19.026 11.396v11.289h-2.237V55.278h2.237v3.272c1.458-2.115 4.122-3.79 7.216-3.79 5.55 0 9.287 4.217 9.287 10.893 0 6.63-3.738 10.936-9.287 10.936-2.92 0-5.538-1.51-7.216-3.875zm14.099-7.061c0-5.032-2.618-8.87-7.26-8.87-2.883 0-5.64 2.27-6.839 4.25v9.194c1.199 1.983 3.956 4.335 6.838 4.335 4.643 0 7.26-3.87 7.26-8.91zm5.46-18.306h2.236V76.07h-2.236V47.347zm20.81 28.663a38.663 38.663 0 0 1-.345-1.888c-.068-.529-.107-1.07-.107-1.62-.767 1.128-1.854 2.067-3.242 2.806-1.39.745-2.71 1.11-4.52 1.11-2.18 0-3.873-.537-5.08-1.627-1.204-1.089-1.81-2.564-1.81-4.43 0-1.864.877-3.377 2.626-4.534 1.749-1.162 4.01-1.74 6.807-1.74h5.219v-2.583c0-1.488-.506-2.659-1.517-3.507-1.015-.85-2.439-1.28-4.284-1.28-1.688 0-3.056.393-4.098 1.158-1.033.78-1.554 1.747-1.554 2.911h-2.29l-.047-.111c-.083-1.57.634-2.949 2.159-4.139 1.518-1.188 3.507-1.786 5.954-1.786 2.44 0 4.414.589 5.902 1.763 1.487 1.162 2.233 2.842 2.233 5.038v10.257c0 .737.035 1.449.127 2.142.094.695.245 1.389.446 2.06h-2.579zm-7.94-1.634c1.9 0 3.266-.426 4.663-1.268 1.387-.836 2.33-1.928 2.825-3.249v-3.992h-5.244c-2.003 0-3.662.444-4.966 1.34-1.307.892-1.97 1.973-1.97 3.23 0 1.186.42 2.134 1.254 2.853.836.726 1.98 1.086 3.437 1.086zm14.476 7.77c.479.214 1.296.345 1.813.345 1.37 0 2.322-.56 3.178-2.541l1.632-3.705-8.815-20.967h2.497l7.561 18.17 7.488-18.17h2.532L269.87 80.645c-1.116 2.613-2.871 3.87-5.282 3.87-.724 0-1.678-.129-2.237-.3l.384-2.07zM75.928 23.663c0-4.46 3.336-7.33 7.485-7.33 2.78 0 4.597 1.318 5.731 2.932l-2.032 1.169a4.61 4.61 0 0 0-3.699-1.89c-2.821 0-4.919 2.123-4.919 5.119 0 2.951 2.098 5.119 4.92 5.119 1.454 0 2.737-.658 3.378-1.274v-2.189h-4.277v-2.188h6.758v5.29c-1.39 1.551-3.4 2.592-5.86 2.592-4.15 0-7.485-2.91-7.485-7.35zm16.439 7.074v-14.17h9.772v2.19h-7.272v3.652h7.122v2.188h-7.122v3.951h7.272v2.189h-9.772zm16.695 0v-11.98h-4.32v-2.19h11.141v2.19h-4.319v11.98h-2.502zm15.517-14.17h2.5v14.17h-2.5v-14.17zm9.469 14.17v-11.98h-4.32v-2.19h11.141v2.19h-4.319v11.98h-2.502zm14.897-7.074c0-4.229 3.014-7.33 7.293-7.33 4.253 0 7.291 3.101 7.291 7.33 0 4.227-3.038 7.329-7.291 7.329-4.28 0-7.293-3.102-7.293-7.33zm12.018 0c0-2.932-1.861-5.12-4.725-5.12-2.889 0-4.727 2.188-4.727 5.12 0 2.909 1.838 5.119 4.727 5.119 2.864 0 4.725-2.21 4.725-5.12zm15.431 7.074l-7.442-10.133v10.133h-2.501v-14.17h2.566l7.292 9.815v-9.816h2.502v14.17h-2.417z"/>
    </g>
</svg>
